<?xml version="1.0" standalone="no"?>
<!DOCTYPE svg PUBLIC "-//W3C//DTD SVG 20010904//EN"
 "http://www.w3.org/TR/2001/REC-SVG-20010904/DTD/svg10.dtd">
<svg version="1.0" xmlns="http://www.w3.org/2000/svg"
 width="345.000000pt" height="93.000000pt" viewBox="0 0 345.000000 93.000000"
 preserveAspectRatio="xMidYMid meet">

<g transform="translate(0.000000,93.000000) scale(0.100000,-0.100000)"
fill="#000000" stroke="none">
<path d="M385 748 c-101 -36 -159 -142 -133 -246 10 -39 29 -65 117 -155 l105
-108 196 196 c167 166 201 195 226 195 61 0 102 -54 83 -109 -10 -29 -278
-291 -297 -291 -5 0 -20 9 -34 19 l-25 20 -43 -44 c-39 -39 -42 -46 -29 -61
21 -25 89 -54 129 -54 19 0 53 9 75 19 49 23 329 303 345 346 18 48 14 128 -9
173 -47 92 -164 136 -259 97 -20 -9 -77 -55 -127 -103 -49 -48 -123 -118 -162
-157 l-73 -69 -36 34 c-69 67 -78 120 -27 160 32 25 62 25 102 3 l30 -18 36
35 c19 18 35 39 35 46 0 19 -57 62 -98 74 -46 12 -88 12 -127 -2z"/>
<path d="M1290 537 c0 -232 2 -242 60 -272 44 -23 121 -19 161 8 49 33 69 79
69 162 0 122 -53 185 -156 185 l-54 0 0 65 0 65 -40 0 -40 0 0 -213z m189 -13
c24 -31 29 -123 8 -164 -16 -32 -54 -45 -89 -31 l-28 11 0 105 0 105 44 0 c36
0 48 -5 65 -26z"/>
<path d="M2530 685 l0 -65 -47 0 c-104 0 -163 -68 -163 -185 1 -118 56 -185
155 -185 62 0 93 15 122 59 22 33 23 42 23 237 l0 204 -45 0 -45 0 0 -65z m0
-240 c0 -104 0 -106 -26 -115 -66 -26 -110 29 -102 127 6 69 27 93 85 93 l43
0 0 -105z"/>
<path d="M1600 605 c0 -8 25 -83 55 -166 30 -83 55 -159 55 -168 0 -9 -9 -31
-20 -49 -15 -25 -27 -32 -50 -32 -27 0 -30 -3 -30 -34 0 -75 102 -58 148 23
21 36 152 412 152 433 0 13 -67 9 -77 -4 -5 -7 -22 -56 -37 -108 -16 -52 -32
-101 -36 -109 -8 -15 -9 -13 -55 142 l-26 87 -40 0 c-28 0 -39 -4 -39 -15z"/>
<path d="M2008 603 l-48 -16 0 -168 0 -169 40 0 40 0 0 145 0 145 59 0 c36 0
63 -5 69 -13 7 -8 13 -68 14 -143 l3 -129 40 0 40 0 3 125 c3 143 -8 178 -67
217 -41 28 -121 30 -193 6z"/>
<path d="M2742 600 c-51 -32 -76 -96 -70 -186 5 -81 22 -114 71 -144 61 -38
208 -18 215 29 7 45 -2 51 -59 34 -66 -20 -125 -6 -139 33 -6 14 -10 27 -10
30 0 2 49 4 109 4 105 0 109 1 114 23 7 26 -5 93 -20 122 -26 47 -62 69 -121
72 -45 3 -64 0 -90 -17z m103 -56 c16 -6 45 -54 45 -74 0 -7 -23 -10 -67 -8
-66 3 -68 4 -65 28 4 42 47 69 87 54z"/>
<path d="M3096 605 c-27 -8 -53 -18 -58 -23 -4 -4 -7 -80 -6 -168 l3 -159 40
0 40 0 3 143 3 142 28 0 c49 0 61 9 61 46 0 32 -2 34 -32 33 -18 0 -55 -7 -82
-14z"/>
</g>
</svg>
